<svg xmlns="http://www.w3.org/2000/svg" viewBox="0 0 64 64" width="64" height="64"><defs><clipPath id="c"><path d="M7 5l12.5 4.5Q32 7 44.5 9.5L57 5v25c0 17-13 26.5-25 31C20 56.5 7 47 7 30Z"/></clipPath><linearGradient id="s" x1="0" y1="0" x2="0.42" y2="1"><stop offset="0" stop-color="#fff" stop-opacity="0.26"/><stop offset="0.46" stop-color="#fff" stop-opacity="0"/><stop offset="0.62" stop-color="#000" stop-opacity="0"/><stop offset="1" stop-color="#000" stop-opacity="0.26"/></linearGradient><linearGradient id="b" x1="0" y1="0" x2="0" y2="1"><stop offset="0" stop-color="#fff" stop-opacity="0.5"/><stop offset="0.45" stop-color="#fff" stop-opacity="0"/><stop offset="0.7" stop-color="#000" stop-opacity="0"/><stop offset="1" stop-color="#000" stop-opacity="0.32"/></linearGradient><linearGradient id="r" x1="0" y1="0" x2="0" y2="1"><stop offset="0" stop-color="#fff" stop-opacity="0.45"/><stop offset="0.5" stop-color="#fff" stop-opacity="0"/><stop offset="1" stop-color="#000" stop-opacity="0.3"/></linearGradient></defs><g clip-path="url(#c)"><rect width="64" height="64" fill="#3050ab"/><path d="M-4 16 L60 52" stroke="#d0424a" stroke-width="15" fill="none"/><rect width="64" height="64" fill="url(#s)"/><path d="M7 5l12.5 4.5Q32 7 44.5 9.5L57 5v25c0 17-13 26.5-25 31C20 56.5 7 47 7 30Z" fill="none" stroke="url(#b)" stroke-width="6.5"/></g><path d="M7 5l12.5 4.5Q32 7 44.5 9.5L57 5v25c0 17-13 26.5-25 31C20 56.5 7 47 7 30Z" fill="none" stroke="#eef1f6" stroke-width="3.5" stroke-linejoin="round"/><path d="M7 5l12.5 4.5Q32 7 44.5 9.5L57 5v25c0 17-13 26.5-25 31C20 56.5 7 47 7 30Z" fill="none" stroke="url(#r)" stroke-width="3.5" stroke-linejoin="round"/></svg>
